<svg xmlns="http://www.w3.org/2000/svg" width="1024" height="1024" viewBox="0 0 1024 1024" version="1.1">
	<path d="M 213.786 216.042 C 210.716 216.395, 208.142 217.441, 206.407 219.042 C 201.242 223.806, 201 225.541, 201 257.815 L 201 287.693 191.031 289.349 C 179.070 291.336, 172.186 293.788, 164.346 298.855 C 153.264 306.018, 146.960 314.977, 141.479 331.355 L 137.976 341.825 138.238 543.662 L 138.500 745.500 140.738 751.432 C 148.030 770.756, 163.999 785.767, 183.500 791.628 C 189.108 793.314, 198.053 793.467, 320.500 793.966 L 451.500 794.500 461 798.342 C 483.556 807.465, 494.005 809.160, 520 807.917 C 536.924 807.108, 541.957 805.940, 562.186 798.127 L 572.871 794 701.488 794 C 844.223 794, 837.106 794.314, 851.757 787.362 C 864.823 781.162, 876.510 767.995, 882.702 752.500 L 885.500 745.500 885.762 544.073 C 886.023 343.284, 886.017 342.621, 883.961 335.073 C 878.620 315.474, 869.302 303.083, 854.595 296.020 C 846.376 292.073, 834.338 289, 827.094 289 L 823.104 289 822.802 257.071 C 822.514 226.634, 822.404 225.014, 820.438 222.383 C 819.304 220.865, 817.130 218.696, 815.607 217.562 C 812.967 215.596, 811.593 215.503, 786.169 215.561 C 723.738 215.703, 657.134 224.044, 598 239.124 C 560.961 248.569, 537.695 257.596, 520.187 269.315 L 512.014 274.786 502.431 268.378 C 485.395 256.987, 468.045 249.620, 440.423 242.046 C 382.066 226.045, 309.636 216.723, 236 215.735 C 226.375 215.606, 216.379 215.744, 213.786 216.042 M 777.500 252.663 C 679.582 257.306, 605.572 270.703, 552.752 293.345 C 541.517 298.160, 539.023 299.695, 531.752 306.271 C 521.854 315.220, 518.613 317.005, 512.300 316.984 C 506.417 316.963, 502.983 315.010, 491.637 305.228 C 484.437 299.020, 481.101 297.023, 468.851 291.584 C 447.139 281.944, 424.003 275.024, 392 268.598 C 375.299 265.245, 352.103 261.369, 338 259.575 C 318.217 257.058, 261.211 253.014, 245.386 253.005 L 237.273 253 237.386 466.739 L 237.500 680.477 264.500 680.648 C 298.333 680.863, 329.095 683.249, 367 688.597 C 407.821 694.357, 445.813 704.107, 467.500 714.389 C 476.939 718.864, 494.234 729.226, 504.627 736.633 C 507.997 739.035, 510.985 741, 511.266 741 C 511.548 741, 518.117 736.735, 525.864 731.522 C 550.365 715.035, 566.671 708.128, 602.716 698.970 C 648.836 687.252, 703.390 681.152, 766.500 680.657 L 786.500 680.500 786.812 524.500 C 787.166 347.648, 786.398 251.893, 784.630 252.189 C 784.009 252.293, 780.800 252.506, 777.500 252.663 M 192.629 325.746 C 185.851 328.004, 177.632 335.698, 175.587 341.699 C 174.159 345.890, 174.001 365.849, 174.010 540.928 L 174.020 735.500 176.378 740.565 C 181.290 751.113, 189.282 756.711, 200.142 757.208 C 203.089 757.343, 265.125 757.312, 338 757.139 L 470.500 756.824 459.500 751.544 C 436.785 740.641, 407.795 732.230, 377 727.609 C 328.415 720.318, 292.985 717.348, 245.794 716.609 C 210.935 716.063, 210.059 715.939, 205.317 710.845 C 204.116 709.555, 202.653 707.233, 202.067 705.685 C 201.325 703.727, 201 645.186, 201 513.435 C 201 333.664, 200.911 324.003, 199.250 324.062 C 198.287 324.096, 195.308 324.854, 192.629 325.746 M 822.994 512.275 C 822.990 645.019, 822.667 701.679, 821.899 704.500 C 820.698 708.905, 817.840 712.510, 814 714.460 C 812.272 715.338, 803.167 715.934, 784.500 716.390 C 728.525 717.758, 689.062 721.003, 642.272 728.086 C 617.213 731.880, 585.680 741.120, 564 751.023 C 558.775 753.410, 554.066 755.737, 553.536 756.195 C 553.006 756.653, 615.331 756.909, 692.036 756.764 L 831.500 756.500 835.500 754.342 C 840.471 751.659, 844.082 747.830, 847.140 742 L 849.500 737.500 849.775 541.500 C 850.082 323.557, 850.628 341.042, 843.277 333.473 C 839.515 329.600, 831.936 325.667, 826.250 324.638 L 823 324.050 822.994 512.275 M 533.016 374.679 C 527.916 377.345, 526.591 382.152, 523.553 409.016 C 522.092 421.932, 517.063 462.875, 512.378 500 C 502.219 580.497, 500.504 595.888, 501.328 599.172 C 502.410 603.480, 505.980 604.284, 526.252 604.781 C 546.883 605.287, 550.065 604.709, 552.490 600.020 C 553.313 598.429, 554.742 588.126, 555.974 574.911 C 557.124 562.585, 559.838 534.275, 562.007 512 C 564.176 489.725, 566.222 468.690, 566.554 465.255 L 567.158 459.011 576.036 476.963 C 580.919 486.836, 588.937 502.471, 593.854 511.707 C 598.771 520.943, 610.970 544.250, 620.963 563.500 C 630.956 582.750, 640.191 599.578, 641.485 600.896 C 644.577 604.045, 650.022 604.867, 668.282 604.940 C 690.056 605.028, 692.084 603.745, 694.536 588.324 C 696.288 577.301, 704.499 509.371, 710.470 456.500 C 712.954 434.500, 715.665 411.081, 716.494 404.457 C 718.225 390.616, 718.435 379.682, 717.021 377.039 C 715.283 373.792, 710.340 373, 691.801 373 C 672.921 373, 669.291 373.719, 667.053 377.901 C 666.499 378.935, 665.358 387.368, 664.516 396.641 C 663.674 405.913, 662.114 421.600, 661.051 431.500 C 659.987 441.400, 658.180 460.525, 657.035 474 C 655.891 487.475, 654.627 501.936, 654.227 506.136 L 653.500 513.773 618.722 446.535 C 599.594 409.554, 582.944 378.397, 581.722 377.297 C 578.260 374.183, 576.953 373.984, 556.102 373.404 C 538.435 372.913, 536.156 373.038, 533.016 374.679 M 323.573 376.202 C 320.342 379.004, 319.987 381.134, 316.455 419 C 315.044 434.125, 311.002 469.686, 307.473 498.024 C 296.396 586.974, 295.462 597.514, 298.309 601.408 C 299.029 602.393, 301.617 603.584, 304.059 604.056 C 310.348 605.270, 389.669 605.192, 400.500 603.961 C 438.970 599.590, 466.312 582.147, 476.921 555.207 C 479.540 548.555, 482.005 534.631, 481.983 526.619 C 481.959 518.336, 479.723 508.360, 476.436 501.873 C 473.126 495.342, 464.093 486.431, 457.176 482.871 L 452.066 480.242 458.644 477.004 C 471.092 470.876, 481.082 458.573, 485.388 444.068 C 487.366 437.404, 487.497 422.448, 485.639 415.500 C 480.675 396.945, 465.294 383.474, 441.446 376.792 C 433.761 374.639, 431.739 374.555, 379.862 374.235 L 326.223 373.904 323.573 376.202 M 368 417.766 C 368 418.187, 366.875 427.923, 365.500 439.401 C 364.125 450.878, 363 461.153, 363 462.233 C 363 464.137, 363.654 464.183, 384.750 463.758 C 410.575 463.237, 413.667 462.464, 421.589 454.542 C 427.724 448.406, 430.486 441.410, 429.759 433.844 C 428.947 425.398, 421.733 419.821, 409.294 418.022 C 401.276 416.863, 368 416.656, 368 417.766 M 356.609 508.750 C 356.135 511.122, 354.939 520.872, 351.152 553.250 L 350.362 560 372.431 559.980 C 384.569 559.969, 397.553 559.519, 401.285 558.979 C 418.393 556.506, 427.316 546.449, 427.441 529.500 C 427.515 519.509, 425.483 514.896, 419.275 510.960 C 412.976 506.965, 405.287 506, 379.748 506 L 357.159 506 356.609 508.750" stroke="none" fill="#ffffff" fill-rule="evenodd"/>
</svg>